<svg xmlns="http://www.w3.org/2000/svg" version="1.1" xmlns:xlink="http://www.w3.org/1999/xlink" xmlns:svgjs="http://svgjs.dev/svgjs" width="1500" height="1500" viewBox="0 0 1500 1500"><rect width="1500" height="1500" fill="#e9e2da"></rect><g transform="matrix(0.6666666666666666,0,0,0.6666666666666666,250,250)"><svg viewBox="0 0 280 280" data-background-color="#e9e2da" preserveAspectRatio="xMidYMid meet" height="1500" width="1500" xmlns="http://www.w3.org/2000/svg" xmlns:xlink="http://www.w3.org/1999/xlink"><g id="tight-bounds" transform="matrix(1,0,0,1,0,0)"><svg viewBox="0 0 280 280" height="280" width="280"><g><svg viewBox="0 0 280 280" height="280" width="280"><g><svg viewBox="0 0 280 280" height="280" width="280"><g id="textblocktransform"><svg viewBox="0 0 280 280" height="280" width="280" id="textblock"><g><svg viewBox="0 0 280 280" height="280" width="280"><g transform="matrix(1,0,0,1,76.64323240568534,78.2271515955432)"><svg viewBox="0 0 126.71353518862932 123.54569680891359" height="123.54569680891359" width="126.71353518862932"><g id="icon-0"><svg xmlns="http://www.w3.org/2000/svg" xmlns:xlink="http://www.w3.org/1999/xlink" version="1.1" x="0" y="0" viewBox="10 11 80 78" style="enable-background:new 0 0 100 100;" xml:space="preserve" height="123.54569680891359" width="126.71353518862932" class="icon-xg-0" data-fill-palette-color="accent" id="xg-0"><g fill="#1b2141" data-fill-palette-color="accent"><path d="M81 11c-5 0-9 4-9 9s4 9 9 9 9-4 9-9S86 11 81 11zM81 27c-3.9 0-7-3.1-7-7s3.1-7 7-7 7 3.1 7 7S84.9 27 81 27z" fill="#1b2141" data-fill-palette-color="accent"></path><path d="M81 41c-2.6 0-4.9 1.1-6.6 2.9L57.3 25.3C58.4 23.8 59 22 59 20c0-5-4-9-9-9s-9 4-9 9 4 9 9 9c2.3 0 4.3-0.9 5.9-2.2l17.3 18.7C72.5 46.8 72 48.4 72 50c0 5 4 9 9 9s9-4 9-9S86 41 81 41zM50 27c-3.9 0-7-3.1-7-7s3.1-7 7-7 7 3.1 7 7S53.9 27 50 27zM81 57c-3.9 0-7-3.1-7-7s3.1-7 7-7 7 3.1 7 7S84.9 57 81 57z" fill="#1b2141" data-fill-palette-color="accent"></path><path d="M50 59c5 0 9-4 9-9s-4-9-9-9-9 4-9 9S45 59 50 59zM50 43c3.9 0 7 3.1 7 7s-3.1 7-7 7-7-3.1-7-7S46.1 43 50 43z" fill="#1b2141" data-fill-palette-color="accent"></path><path d="M19 89c5 0 9-4 9-9s-4-9-9-9-9 4-9 9S14 89 19 89zM19 73c3.9 0 7 3.1 7 7s-3.1 7-7 7-7-3.1-7-7S15.1 73 19 73z" fill="#1b2141" data-fill-palette-color="accent"></path><path d="M81 71c-4.6 0-8.4 3.5-8.9 8H58.9c-0.5-4.5-4.3-8-8.9-8-3.2 0-6 1.7-7.6 4.2l-18-18c2.2-1.6 3.6-4.3 3.6-7.2 0-4.6-3.5-8.4-8-8.9V28.9c4.5-0.5 8-4.3 8-8.9 0-5-4-9-9-9s-9 4-9 9c0 4.6 3.5 8.4 8 8.9v12.1c-4.5 0.5-8 4.3-8 8.9 0 5 4 9 9 9 1.3 0 2.5-0.3 3.6-0.7l18.9 18.9C41.2 78 41 79 41 80c0 5 4 9 9 9 4.6 0 8.4-3.5 8.9-8h13.1c0.5 4.5 4.3 8 8.9 8 5 0 9-4 9-9S86 71 81 71zM12 20c0-3.9 3.1-7 7-7s7 3.1 7 7-3.1 7-7 7S12 23.9 12 20zM12 50c0-3.9 3.1-7 7-7s7 3.1 7 7-3.1 7-7 7S12 53.9 12 50zM50 87c-3.9 0-7-3.1-7-7s3.1-7 7-7 7 3.1 7 7S53.9 87 50 87zM81 87c-3.9 0-7-3.1-7-7s3.1-7 7-7 7 3.1 7 7S84.9 87 81 87z" fill="#1b2141" data-fill-palette-color="accent"></path></g></svg></g></svg></g><g id="text-0"><path d="M31.895 96.044l2.463 0.806-4.651 14.21-26.523-8.681 0.93-2.842 24.061 7.875z" fill="#1b2141" data-fill-palette-color="primary"></path><path d="M71.111 38.936c-1.543-2.049-3.126-3.311-4.748-3.785-1.622-0.475-3.208-0.129-4.758 1.038-1.55 1.167-2.261 2.51-2.133 4.027 0.128 1.517 0.992 3.338 2.591 5.461v0c3.022 4.013 6.009 4.907 8.96 2.684v0c1.55-1.167 2.338-2.518 2.364-4.051 0.026-1.534-0.732-3.325-2.276-5.374zM76.11 44.38c-0.123 2.355-1.288 4.364-3.496 6.027-2.208 1.663-4.441 2.222-6.698 1.677-2.258-0.546-4.358-2.108-6.301-4.688-1.943-2.579-2.898-5.029-2.866-7.35 0.032-2.32 1.147-4.308 3.344-5.963 2.197-1.655 4.487-2.215 6.87-1.681 2.383 0.535 4.533 2.076 6.453 4.624 1.919 2.548 2.817 4.999 2.694 7.354z" fill="#1b2141" data-fill-palette-color="primary"></path><path d="M138.585 16.221v0l-4.064 0.141 0.409 11.715-2.988 0.104-0.974-27.891 7.969-0.278c2.975-0.104 5.156 0.472 6.543 1.726 1.387 1.255 2.128 3.257 2.224 6.006 0.096 2.749-0.656 4.823-2.256 6.223-1.6 1.399-3.888 2.15-6.863 2.254zM137.672 2.609v0l-3.626 0.127 0.386 11.076 2.63-0.091c2.736-0.095 4.714-0.577 5.933-1.444 1.22-0.867 1.795-2.303 1.725-4.309-0.07-2.006-0.665-3.421-1.784-4.246-1.119-0.825-2.874-1.196-5.264-1.113z" fill="#1b2141" data-fill-palette-color="primary"></path><path d="M207.042 49.093l-2.444-1.652 14.13-20.91-6.474-4.375 1.496-2.213 15.327 10.358-1.496 2.213-6.408-4.331z" fill="#1b2141" data-fill-palette-color="primary"></path><path d="M274.974 94.33l-22.758 18.613-1.197-3.127 7.231-5.756-3.577-9.346-9.212 0.58-1.125-2.942 29.341-1.411zM257.364 94.495l3.064 8.006 11.061-8.801z" fill="#1b2141" data-fill-palette-color="primary"></path><path d="M17.837 196.671l-2.463 0.806-4.65-14.209 26.524-8.681 0.93 2.842-24.061 7.875z" fill="#1b2141" data-fill-palette-color="primary"></path><path d="M70.919 249.433c1.543-2.049 2.319-3.918 2.328-5.609 0.009-1.69-0.762-3.119-2.311-4.286-1.55-1.167-3.036-1.48-4.46-0.938-1.423 0.542-2.934 1.874-4.533 3.997v0c-3.022 4.013-3.058 7.13-0.107 9.353v0c1.55 1.167 3.065 1.552 4.547 1.154 1.481-0.398 2.994-1.622 4.536-3.671zM67.067 255.74c-2.298 0.532-4.55-0.033-6.758-1.696-2.208-1.663-3.361-3.655-3.461-5.976-0.099-2.321 0.823-4.771 2.767-7.35 1.943-2.579 4.034-4.174 6.273-4.783 2.239-0.609 4.457-0.086 6.655 1.569 2.197 1.655 3.368 3.701 3.511 6.139 0.144 2.438-0.744 4.93-2.662 7.478-1.919 2.548-4.027 4.088-6.325 4.619z" fill="#1b2141" data-fill-palette-color="primary"></path><path d="M138.706 268.428v0l-4.064-0.142-0.409 11.714-2.988-0.104 0.973-27.891 7.969 0.278c2.975 0.104 5.111 0.83 6.407 2.178 1.296 1.348 1.896 3.397 1.8 6.147-0.096 2.749-0.991 4.766-2.685 6.049-1.694 1.284-4.028 1.874-7.003 1.771zM138.743 254.786v0l-3.625-0.127-0.387 11.077 2.63 0.092c2.736 0.095 4.743-0.247 6.02-1.027 1.277-0.78 1.951-2.173 2.02-4.178 0.07-2.006-0.425-3.459-1.483-4.36-1.059-0.901-2.784-1.394-5.175-1.477z" fill="#1b2141" data-fill-palette-color="primary"></path><path d="M218.226 255.571l-2.444 1.652-14.131-20.91-6.474 4.376-1.496-2.214 15.327-10.357 1.496 2.213-6.408 4.33z" fill="#1b2141" data-fill-palette-color="primary"></path><path d="M241.5 180.974l29.37 1.337-1.197 3.127-9.226-0.542-3.577 9.346 7.246 5.718-1.126 2.942-22.787-18.539zM254.721 192.608l3.064-8.006-14.111-0.832z" fill="#1b2141" data-fill-palette-color="primary"></path><path d="M4.318 144.057c0-5.888 4.773-10.661 10.661-10.66 5.888 0 10.661 4.773 10.661 10.66 0 5.888-4.773 10.661-10.661 10.661-5.888 0-10.661-4.773-10.661-10.661z" fill="#1b2141" data-fill-palette-color="primary"></path><path d="M255.495 144.057c0-5.888 4.773-10.661 10.66-10.66 5.888 0 10.661 4.773 10.661 10.66 0 5.888-4.773 10.661-10.661 10.661-5.888 0-10.661-4.773-10.66-10.661z" fill="#1b2141" data-fill-palette-color="primary"></path></g><g id="text-1"></g></svg></g></svg></g></svg></g><g></g></svg></g><defs></defs></svg><rect width="280" height="280" fill="none" stroke="none" visibility="hidden"></rect></g></svg></g></svg>